/* XPM */
static char *result[] = {
/* columns rows colors chars-per-pixel */
"50 50 15 1 ",
"  c black",
". c #002F16",
"X c #00371A",
"o c #01391A",
"O c #015928",
"+ c #035C28",
"@ c #097129",
"# c #586738",
"$ c #3FAD29",
"% c #6BD925",
"& c #A9E74D",
"* c #BBE666",
"= c #C0E868",
"- c #C7E878",
"; c #E0E8B1",
/* pixels */
"##################################################",
"##################################################",
"##################################################",
"############                          ############",
"############                          ############",
"############                          ############",
"############                          ############",
"########    @@@@@;;;;;;;;-===*$$$$@@@@    ########",
"########    @@@@@;;;;;;;;-===*$$$$@@@@    ########",
"########    @@@@@;;;;;;;;-===*$$$$@@@@    ########",
"########    @@@@@;;;;;;;;-====$$$$@@@@    ########",
"####    OOOO=====;;;;;;;;=========$$$$OOOO    ####",
"####    OOOO=====;;;;;;;;=========$$$$OOOO    ####",
"####    OOOO=====;;;;;;;;=========$$$$OOOO    ####",
"####    OOOO=========@@@@@@@@@@@@@$$$$OOOO    ####",
"    ....$$$$=========@@@@@@@@@@@@@$$$$$$$$....    ",
"    ....$$$$=========@@@@@@@@@@@@@$$$$$$$$....    ",
"    ....$$$$=========@@@@@@@@@@@@@$$$$$$$$....    ",
"    ....$$$$=========@@@@@@@@@@@@@$$$$$$$$....    ",
"    OOOO$$$$OOOO..................OOOO$$$$OOOO    ",
"    OOOO$$$$OOOO..................OOOO$$$$OOOO    ",
"    OOOO$$$$OOOO..................OOOO$$$$OOOO    ",
"    OOOO$$$$OOOO..................OOOO$$$$OOOO    ",
"    OOOO$$$$..........................$$$$OOOO    ",
"    OOOO$$$$..........................$$$$OOOO    ",
"    OOOO$$$$..........................$$$$OOOO    ",
"    OOOO$$$$..........................$$$$OOOO    ",
"    OOOO$$$$..........................$$$$OOOO    ",
"    OOOO$$$$..........................$$$$OOOO    ",
"    OOOO$$$$..........................$$$$OOOO    ",
"    OOOO$$$$..........................$$$$OOOO    ",
"    OOOO$$$$..........................$$$$OOOO    ",
"    OOOO%%%%$$$$OOOOO.........OOOOO$$$$$$$OOOO    ",
"    OOOO%%%%$$$$OOOOO.........OOOOO$$$$$$$OOOO    ",
"    ....%%%%$$$$OOOOO.........OOOOO$$$%%%%....    ",
"    ....%%%%$$$$OOOOO.........OOOOO$$$%%%%....    ",
"    ....%%%%$$$$OOOOOXXXXXXXXoOOOOO$$$%%%%....    ",
"    ....%%%%$$$$$$$$OOOOOOOOO+$$$$$$$$%%%%....    ",
"####    OOOO&&&&$$$$OOOOOOOOOO$$$$&&&&OOOO    ####",
"####    OOOO&&&&$$$$OOOOOOOOOO$$$$&&&&OOOO    ####",
"####    OOOO&&&&$$$$OOOOOOOOOO$$$$&&&&OOOO    ####",
"####    OOOO&&&&$$$$OOOOOOOOOO$$$$&&&&OOOO    ####",
"########    OOOO&&&&&&&&&&&&&&&&&&OOOO    ########",
"########    OOOO&&&&&&&&&&&&&&&&&&OOOO    ########",
"########    OOOO&&&&&&&&&&&&&&&&&&OOOO    ########",
"########    OOOO&&&&&&&&&&&&&&&&&&OOOO    ########",
"############                          ############",
"############                          ############",
"############                          ############",
"############                          ############"
};
