/* XPM */
static char *result[] = {
/* columns rows colors chars-per-pixel */
"50 50 130 2 ",
"   c #7F5432",
".  c #775638",
"X  c #7D5538",
"o  c #7E5A3E",
"O  c #7E5C42",
"+  c #715C48",
"@  c #756456",
"#  c #7D6E62",
"$  c #6F797E",
"%  c #767675",
"&  c #7F7D7B",
"*  c #88581F",
"=  c #84562F",
"-  c #815533",
";  c #815834",
":  c #8F622D",
">  c #95692D",
",  c #83603D",
"<  c #956D31",
"1  c #9B6B30",
"2  c #815E41",
"3  c #876245",
"4  c #8B6344",
"5  c #8F6946",
"6  c #846348",
"7  c #8C674B",
"8  c #8D694A",
"9  c #986B47",
"0  c #936B4D",
"q  c #986F4D",
"w  c #9A724E",
"e  c #8E6C52",
"r  c #926C51",
"t  c #996F52",
"y  c #966F5A",
"u  c #937254",
"i  c #9A7053",
"p  c #A47B4B",
"a  c #8F6D62",
"s  c #897464",
"d  c #7EC700",
"f  c #CC903E",
"g  c #CA9E3B",
"h  c #D4943E",
"j  c #CAA23E",
"k  c #D0A639",
"l  c #E7BD3F",
"z  c #FBB13A",
"x  c #ECCC3D",
"c  c #F4C938",
"v  c #F9D434",
"b  c #FCD13D",
"n  c #AD8A4D",
"m  c #84817D",
"M  c #C59D43",
"N  c #D09543",
"B  c #D99941",
"V  c #D19A49",
"C  c #CEA642",
"Z  c #D0A744",
"A  c #D1AA44",
"S  c #D5B143",
"D  c #C9AB55",
"F  c #F4AD40",
"G  c #F6CF49",
"H  c #F3D649",
"J  c #4F708B",
"K  c #52748D",
"L  c #557790",
"P  c #567A94",
"I  c #5A7C96",
"U  c #577E98",
"Y  c #5B7D99",
"T  c #707B82",
"R  c #5C829B",
"E  c #60859E",
"W  c #6283A0",
"Q  c #6489A3",
"!  c #6A8DA7",
"~  c #6C8FAA",
"^  c #748FA4",
"/  c #6F94AE",
"(  c #6F96B2",
")  c #7296B2",
"_  c #7499B5",
"`  c #799CB6",
"'  c #7B9DBA",
"]  c #7DA2BE",
"[  c #7EA4C1",
"{  c #898683",
"}  c #86878A",
"|  c #838991",
" . c #9B9C9E",
".. c #979DA1",
"X. c #9A9EA3",
"o. c #979EAD",
"O. c #9C9BAD",
"+. c #809EBC",
"@. c #8FA1A5",
"#. c #8DA2AC",
"$. c #91A1AD",
"%. c #8FA3B0",
"&. c #82A2BE",
"*. c #81A5C3",
"=. c #88A6C5",
"-. c #84A9C6",
";. c #89AAC6",
":. c #86ABC9",
">. c #8AAECB",
",. c #91AFC9",
"<. c #8DB1CE",
"1. c #90B1CE",
"2. c #8EB3D1",
"3. c #93B5D3",
"4. c #95B8D6",
"5. c #99B9D7",
"6. c #9CBCDB",
"7. c #A0BACF",
"8. c #B0BFC6",
"9. c #A0BCD6",
"0. c #A0BEDE",
"q. c #9CC0DE",
"w. c #A7C1D6",
"e. c #A1C1DF",
"r. c #A8C6DC",
"t. c #B5CCDF",
"y. c #A0C2E0",
"u. c #B1CAE2",
"i. c #BAD0E0",
"p. c #C8DBED",
/* pixels */
"d d d d d d d d d d d d d d d d d d d d d d d d d d d d d d d d d d d d d d d d d d d d d d d d d d ",
"d d d d d d d d d d d d d d d d d d d d d d d d d d d d d d d d d d d d d d d d d d d d d d d d d d ",
"d d d d d d d d d d d d d d d d d d d d d d d d d d d d d d d d d d d d d d d d d d d d d d d d d d ",
"d d d d d d d d d d d d d d d d d d d d d d d d d d d d d d d d d d d d d d d d d d d d d d d d d d ",
"d d d d d d d d d d d d d d d d d d w.5.3.3.5.5.*.=.3.:.5.5.<.5.r.d d d d d d d d d d d d d d d d d ",
"d d d d d d d d d d d d d d d d d p.e.9.5.,.>.5.3.:.*.0.6.5.6.0.0.p.d d d d d d d d d d d d d d d d ",
"d d d d d d d d d d d d d d d w.+.+.` +.5.5.6.2.>.;.*.0.0.1.2.' ' ` ) 8.d d d d d d d d d d d d d d ",
"d d d d d d d d d d d d d d &.) ;.;.=.=./ 3.5.6.=.*.<.0.5.1.~ =.-.;.=.) &.d d d d d d d d d d d d d ",
"d d d d d d d d d d d d d e.>.0.:.0.;.6.>.! [ 0.' _ 3.6.[ Q >.0.>.6.:.5.>.q.d d d d d d d d d d d d ",
"d d d d d d d d d d d d =.*.*.6.>.6.4.0.>.! >.>.>.` :.*.4.) >.0.5.5.>.6.*.[ ;.d d d d d d d d d d d ",
"d d d d d d d d d d d I J J K _ 2.<.>.1.,.T { { { m { & { $ ,.>.>.3.1.` J K J L d d d d d d d d d d ",
"d d d d d d d d d d u.` >.;.Y K 5.5.6.>.% e 0 0 2 r 0 ; 0 7 # 3.9.6.5.L W =.;.` u.d d d d d d d d d ",
"d d d d d d d d d ^ <.6.:.4.6.U 0.5.5.a 2 0 0 0 2 0 0 2 0 0 - . 7.9.6.I 6.5.:.6.:.! d d d d d d d d ",
"d d d d d d d d i.3.4.6.5.>.6.6.Y | e r 2 0 0 0 2 0 0 O 0 0 0 o O } E 6.6.>.5.6.6.4.t.d d d d d d d ",
"d d d d d d d d R >.>.<.<.<.5.) # 7 r 0 2 0 0 0 2 0 0 ; 0 0 0 o 0 5 @ ) 5.2.2.>.>.>.Y d d d d d d d ",
"d d d d d d d d Y 3.3.-.6.2.3.s 7 2 0 0 2 0 0 0 2 0 0 O 7 0 0 o 0 0 - + 2.2.6.*.3.3.U d d d d d d d ",
"d d d d d d d d U -.4.] 3.&.] t 7 4 0 0 2 0 0 0 2 0 0 2 7 0 0 2 0 0 -   ] ] 3.] 4.&.P d d d d d d d ",
"d d d d d d d d U ' ' ' ' ` ' t 8 4 0 0 2 0 0 0 2 0 0 2 0 0 0 X 0 0 = - ' ' +.+.' ' L d d d d d d d ",
"d d d d d d d d Y 6.6.<.6.>.5.t 7 4 0 0 2 0 0 0 2 0 0 2 0 0 0 O 0 0 = - 5.>.5.<.6.6.I d d d d d d d ",
"d d d d d d d d R 5.3.6.0.5.3.i 0 2 0 0 2 0 0 0 2 0 0 ; 0 0 0 o 0 0 = - 3.5.e.5.3.5.R d d d d d d d ",
"d d d d d d d d R 3.>.6.[ -.4.i 7 3 0 0 2 0 0 0 2 0 r - 0 0 0 O 0 0 = - 4.*.[ 5.>.4.I d d d d d d d ",
"d d d d d d d d U ] >.2.[ <.<.y r 2 0 0 2 0 0 r 2 0 r 2 0 0 0 O r 0 - - >.>.*.3.<.[ L d d d d d d d ",
"d d d d d d d d P R R R R Q R V B B B B N h B B N B B f B B N B h B h N W Q E E R R L d d d d d d d ",
"d d d d d d d d R 6.6.6.6.6.6.H b b b b G b b b b G b b b b b b b b b G 5.6.6.6.6.6.Y d d d d d d d ",
"d d d d d d d d R 2.-.[ 6.2.6.i 9 , 9 0 o 0 9 0 ; 9 9 X 0 0 5 ; 0 9 = - 6.1.6.[ *.3.U d d d d d d d ",
"d d d d d d d d U <.-.>.q.6.6.i 8 6 0 0 o 0 0 0 2 t 0 2 0 0 0 O 0 0 = - 6.5.6.>.*.>.P d d d d d d d ",
"d d d d d d d d Y <.:.2.2.3.6.i 8 6 0 0 3 0 0 0 2 0 0 2 0 0 0 O 0 0 = - 6.3.<.2.:.>.U d d d d d d d ",
"d d d d d d d d U [ :.5.[ [ 3.t 5 6 0 0 o 0 0 0 2 0 0 ; 0 0 0 o 0 0 = - 3.*.' 6.*.:.Y d d d d d d d ",
"d d d d d d d d U _ *.) *.) ) t 5 3 0 0 2 0 0 0 2 0 r ; 0 0 0 , p w = - ( _ -._ *.) P d d d d d d d ",
"d d d d d d d d I ' ` ' ' ` ` 0 8 3 0 0 2 0 0 0 2 0 r o 7 r 9 k l S : - ` ` ' ' ' ' P d d d d d d d ",
"d d d d d d d d Y 6.6.>.6.<.<.i 8 6 0 0 2 r 0 q 2 0 0 o 0 0 N b b H < X >.2.4.=.6.5.Y d d d d d d d ",
"d d d d d d d d R 5.5.q.6.6.6.i 8 6 0 9 2 0 0 0 2 0 0 o 0 9 * c v x > - 4.6.q.q.5.6.I d d d d d d d ",
"d d d d d d d d R 4.[ 2.q.2.[ t 8 3 0 0 2 0 0 0 ; 0 0 o r 0 4 1 A n =   [ 3.q.2.-.4.Y d d d d d d d ",
"d d d d d d d d R :.:.:.>.2.:.r 8 3 0 0 3 0 0 0 6 0 0 o 0 0 0 o 0 0 =   *.2.>.=.:.:.P d d d d d d d ",
"d d d d d d d d P :.:.[ [ :.*.u 7 6 r r O 8 r u O 0 r O r r r O r e =   -.:.[ *.:.:.P d d d d d d d ",
"d d d d d d d d K U R Y Y U R F z z z z z z z z z z z z z z z z z z z F Y Y Y Y Y Y L d d d d d d d ",
"d d d d d d d d U <.3.2.6.2.q.D C j Z Z C A A A j A Z g Z Z C g A C g M 0.3.6.3.3.>.P d d d d d d d ",
"d d d d d d d d Y 4.4.4.6.2.q.y 8 3 0 0 O 8 0 0 2 0 0 O r r 0 o r 0 ; - 6.3.5.3.4.3.Y d d d d d d d ",
"d d d d d d d d Y 2.2.q.4.2.0.t 8 3 0 0 O 0 0 0 2 0 0 O 0 0 0 o 0 0 - - 6.<.6.q.4.2.Y d d d d d d d ",
"d d d d d d d d Y :.:.[ >.5.6.t 8 4 0 0 O 0 0 0 2 0 0 ; r 0 0 o 0 0 = - 5.4.>.[ -.=.P d d d d d d d ",
"d d d d d d d d U ' [ ) *.' ' r 8 3 0 0 2 0 0 0 , 0 0 o 0 0 0 o 0 0 = - ' ' *.( +.] Y d d d d d d d ",
"d d d d d d d d Y >.>.;.>.;.>.i 0 3 0 0 O 0 0 0 2 0 0 o r 0 r o 0 0 = - >.>.>.>.>.:.Y d d d d d d d ",
"d d d d d d d d R 5.6.6.6.3.5.i 7 3 0 0 3 0 0 0 2 0 0 o 0 0 0 o 0 0 =   4.3.6.6.0.6.Y d d d d d d d ",
"d d d d d d d d R 6.4.>.5.>.3.t 7 4 0 0 o 0 0 0 2 0 0 o 0 0 0 o 0 0 = - 3.>.5.>.4.6.Y d d d d d d d ",
"d d d d d d d d R 3.-.6.2.>.>.r 8 3 0 0 O 0 0 0 2 0 0 ; 0 0 0 o 0 0 - - <.>.<.6.:.4.U d d d d d d d ",
"d d d d d d d d Y -.3.y.[ >.5.i 7 3 0 0 O 0 0 0 2 0 r 2 0 0 0 o 0 0 = - 5.[ [ 6.3.-.P d d d d d d d ",
"d d d d d d d d U ] ] ' *.<.] r 7 6 r r O e e e O e r 2 r r r O e e ; X ] 2.[ ' [ [ L d d d d d d d ",
"d d d d d d d d %.#.#.#.#.#.#.%.O.@.$.$.X.$.$.o...$.o. .@.$.$. .o.$.o.O.#.#.%.#.#.$.o.d d d d d d d ",
"d d d d d d d d d d d d d d d d d d d d d d d d d d d d d d d d d d d d d d d d d d d d d d d d d d ",
"d d d d d d d d d d d d d d d d d d d d d d d d d d d d d d d d d d d d d d d d d d d d d d d d d d "
};
