/* XPM */
static char *result[] = {
/* columns rows colors chars-per-pixel */
"50 50 168 2 ",
"   c #010101",
".  c #0C0404",
"X  c #080807",
"o  c #060709",
"O  c #0C0C0C",
"+  c #100303",
"@  c #100F0F",
"#  c #141313",
"$  c #1E1613",
"%  c #1B1A14",
"&  c #1C1C1C",
"*  c #231D14",
"=  c #211E1D",
"-  c #1D201F",
";  c #22211F",
":  c #3B301C",
">  c #1B1F21",
",  c #0D2625",
"<  c #032D27",
"1  c #092A26",
"2  c #032D28",
"3  c #132423",
"4  c #102824",
"5  c #0A352D",
"6  c #0D3731",
"7  c #073B33",
"8  c #232222",
"9  c #282727",
"0  c #282A25",
"q  c #2B2A2B",
"w  c #2F312F",
"e  c #30312F",
"r  c #3C3728",
"t  c #2F3131",
"y  c #353534",
"u  c #3B3532",
"i  c #393B36",
"p  c #393739",
"a  c #333E3C",
"s  c #3C3C3B",
"d  c #51392F",
"f  c #473D37",
"g  c #06463C",
"h  c #0A443B",
"j  c #26443F",
"k  c #3F403D",
"l  c #644337",
"z  c #064E43",
"x  c #254741",
"c  c #234D43",
"v  c #294C43",
"b  c #354D48",
"n  c #394D4A",
"m  c #29594F",
"M  c #245B52",
"N  c #196F61",
"B  c #1B7365",
"V  c #187A6B",
"C  c #454444",
"Z  c #484745",
"A  c #4C4A46",
"S  c #4C4C4B",
"D  c #514B4A",
"F  c #4F5351",
"G  c #565654",
"H  c #585755",
"J  c #5D5D59",
"K  c #69574D",
"L  c #69594E",
"P  c #675C55",
"I  c #63615C",
"U  c #69635F",
"Y  c #7A6355",
"T  c #7D6A56",
"R  c #776D5E",
"E  c #666562",
"W  c #6D6967",
"Q  c #7D6C63",
"!  c #716D6C",
"~  c #71706D",
"^  c #767370",
"/  c #787672",
"(  c #7C7B76",
")  c #777B78",
"_  c #7D7C79",
"`  c #854828",
"'  c #8D583E",
"]  c #A25D38",
"[  c #AC6A3D",
"{  c #8E614E",
"}  c #93664A",
"|  c #876756",
" . c #8A6351",
".. c #966D57",
"X. c #9C6F54",
"o. c #A06B4A",
"O. c #B6794B",
"+. c #826C62",
"@. c #8E7768",
"#. c #86796E",
"$. c #88786F",
"%. c #977C66",
"&. c #847672",
"*. c #847973",
"=. c #807E7A",
"-. c #7EC700",
";. c #188172",
":. c #7F807B",
">. c #D7803E",
",. c #B5815A",
"<. c #9A826C",
"1. c #83817B",
"2. c #AE8462",
"3. c #AB957C",
"4. c #B79071",
"5. c #D98742",
"6. c #C38353",
"7. c #CE8D58",
"8. c #EBA75E",
"9. c #F3AA57",
"0. c #F3A95C",
"q. c #C28E63",
"w. c #CE9E6F",
"e. c #D99C65",
"r. c #DDA97B",
"t. c #ECAB63",
"y. c #E8AB6D",
"u. c #F3A862",
"i. c #E8AB72",
"p. c #E4AB79",
"a. c #249C8B",
"s. c #2A9B89",
"d. c #15AF9A",
"f. c #0CB39E",
"g. c #15B29E",
"h. c #1CB09C",
"j. c #29AD99",
"k. c #36AB99",
"l. c #20B19E",
"z. c #42A795",
"x. c #858380",
"c. c #8B8A84",
"v. c #96938D",
"b. c #9B9590",
"n. c #9F9D96",
"m. c #9F9D98",
"M. c #AA9784",
"N. c #A29E97",
"B. c #A19E99",
"V. c #A4A19B",
"C. c #A4A39B",
"Z. c #ADA9A5",
"A. c #B1ADA7",
"S. c #BCBCB6",
"D. c #BEBCB8",
"F. c #C0BCB8",
"G. c #FCCA8E",
"H. c #FBCB92",
"J. c #F4CF9E",
"K. c #F8CD9B",
"L. c #F6D19C",
"P. c #F8D098",
"I. c #CDC3B4",
"U. c #EBD2AA",
"Y. c #F3D0A4",
"T. c #F2D0A9",
"R. c #EDD1B0",
"E. c #FBFBF9",
/* pixels */
"-.-.-.-.-.-.-.-.-.-.-.-.-.-.-.-.-.-.-.-.-.-.-.-.-.-.-.-.-.-.-.-.-.-.-.-.-.-.-.-.-.-.-.-.-.-.-.-.-.-.",
"-.-.-.-.-.-.-.-.-.-.-.-.-.-.-.-.-.-.-.-.-.-.-.        -.-.-.-.-.-.-.-.-.-.-.-.-.-.-.-.-.-.-.-.-.-.-.",
"-.-.-.-.-.-.-.-.-.-.-.-.-.-.-.-.-.-.-.-.-.-.-.        -.-.-.-.-.-.-.-.-.-.-.-.-.-.-.-.-.-.-.-.-.-.-.",
"-.-.-.-.-.-.-.-.-.-.-.-.-.-.-.-.-.-.-.-.-.-.  x x x j   -.-.-.-.-.-.-.-.-.-.-.-.-.-.-.-.-.-.-.-.-.-.",
"-.-.-.-.-.-.-.-.-.-.-.-.-.-.-.-.-.-.-.-.    m k.j.k.z.v     -.-.-.-.-.-.-.-.-.-.-.-.-.-.-.-.-.-.-.-.",
"-.-.-.-.-.-.-.-.-.-.-.-.-.-.-.-.-.-.-.-.    M j.g.l.j.c     -.-.-.-.-.-.-.-.-.-.-.-.-.-.-.-.-.-.-.-.",
"-.-.-.-.-.-.-.-.-.-.-.-.-.-.-.-.-.-.    z z V g.f.g.d.B z z     -.-.-.-.-.-.-.-.-.-.-.-.-.-.-.-.-.-.",
"-.-.-.-.-.-.-.-.-.-.-.-.-.-.-.-.-.-.    z z ;.g.f.f.h.V z z     -.-.-.-.-.-.-.-.-.-.-.-.-.-.-.-.-.-.",
"-.-.-.-.-.-.-.-.-.-.-.-.-.-.-.-.-.-.    z z V s.a.a.s.N z z     -.-.-.-.-.-.-.-.-.-.-.-.-.-.-.-.-.-.",
"-.-.-.-.-.-.-.-.-.-.-.-.-.-.-.-.-.-.    z z z z z z z z z z     -.-.-.-.-.-.-.-.-.-.-.-.-.-.-.-.-.-.",
"-.-.-.-.-.-.-.-.-.-.-.-.-.-.-.-.-.-.    z z z z z z z g z z     -.-.-.-.-.-.-.-.-.-.-.-.-.-.-.-.-.-.",
"-.-.-.-.-.-.-.-.-.-.-.-.-.-.-.-.-.-.    5 6 h z z z z h 7 5     -.-.-.-.-.-.-.-.-.-.-.-.-.-.-.-.-.-.",
"-.-.-.-.-.-.-.-.-.-.-.-.-.-.-.-.-.-.    , 2 7 z z z z 7 < 1     -.-.-.-.-.-.-.-.-.-.-.-.-.-.-.-.-.-.",
"-.-.-.-.-.-.-.-.-.-.-.-.-.-.-.-.-.-.    , 1 7 h h h h 7 1 4 O X -.-.-.-.-.-.-.-.-.-.-.-.-.-.-.-.-.-.",
"-.-.-.-.-.-.-.-.-.-.-.-.-.-.-.      = & > > , < 2 2 2 4 - 3 & -       -.-.-.-.-.-.-.-.-.-.-.-.-.-.-.",
"-.-.-.-.-.-.-.-.-.-.-.-.-.-.-.      = = = 3 3 < 2 2 1 3 & & 8 &       -.-.-.-.-.-.-.-.-.-.-.-.-.-.-.",
"-.-.-.-.-.-.-.-.-.-.-.-.-.-.-.O O % 9 9 e t k b b b n a t w 0 0 # X O -.-.-.-.-.-.-.-.-.-.-.-.-.-.-.",
"-.-.-.-.-.-.-.-.-.-.-.-.    o & & 9 y s S D I ) ) ) ) J S S y p 8 = %       -.-.-.-.-.-.-.-.-.-.-.-.",
"-.-.-.-.-.-.-.-.-.-.-.-.o o X 8 > q p k S S E _ x.:.1.U S S p s 9 8 =       -.-.-.-.-.-.-.-.-.-.-.-.",
"-.-.-.-.-.-.-.-.-.-.o   # & & y p k S S S S ~ S.S.S.S.~ S S S S p y e 3 & #     -.-.-.-.-.-.-.-.-.-.",
"-.-.-.-.-.-.-.-.-.-.    @ - = y p s S S S S ^ S.S.S.S.~ S S S S p y t & = @     -.-.-.-.-.-.-.-.-.-.",
"-.-.-.-.-.-.-.-.-.-.o   C _ ( ( ) J y s S S E _ :.( :.J S S u y ! ) _ ( ( s     -.-.-.-.-.-.-.-.-.-.",
"-.-.-.-.-.-.-.-.-.-.    Z _ ( ( ( J y s S S E _ ( ( _ I A A y u ! _ _ ) ( s     -.-.-.-.-.-.-.-.-.-.",
"-.-.-.-.-.-.-.-.-.-.    C ( ( _ ( J p f S S E _ ( =._ I D S s y ^ _ _ _ _ f     -.-.-.-.-.-.-.-.-.-.",
"-.-.-.-.-.-.-.-.-.-.o   q F A _ _ c.n.m.m.B.Z.D.S.S.S.Z.N.N.m.m.1.( ! F D 0     -.-.-.-.-.-.-.-.-.-.",
"-.-.-.-.-.-.-.-.-.-.    q S S _ _ c.N.V.B.B.A.D.F.S.S.Z.N.N.n.B.1.( ~ F S 9     -.-.-.-.-.-.-.-.-.-.",
"-.-.-.-.-.-.-.-.-.-.o   & e q v.v.b.V.V.S.S.S.S.S.S.S.S.S.S.N.n.v.v.( u q #     -.-.-.-.-.-.-.-.-.-.",
"-.-.-.-.-.-.-.-.-.-.    # = = N.N.N.B.C.S.S.S.S.S.S.S.S.S.S.N.N.V.V._ 8 & #     -.-.-.-.-.-.-.-.-.-.",
"-.-.-.-.-.-.-.-.-.-.o   # # # ^ / 1.V.v.1.=.V.I.I.I.I.V._ :.S.S.=.^ J = # O     -.-.-.-.-.-.-.-.-.-.",
"-.-.-.-.-.-.-.-.-.-.-.-.    o 8 ; ; E.E.    R U.U.T.R.L     E.E.C > &     -.-.-.-.-.-.-.-.-.-.-.-.-.",
"-.-.-.-.-.-.-.-.-.-.-.-.o   & # & & E.E.    T Y.P.P.T.K     E.E.s & %     -.-.-.-.-.-.-.-.-.-.-.-.-.",
"-.-.-.-.-.-.-.-.-.-.-.-.    & % w e E.E.    T J.L.L.T.K     E.E.S & % o   -.-.-.-.-.-.-.-.-.-.-.-.-.",
"-.-.-.-.-.-.-.-.-.-.-.-.    i i S F E.E.    T J.K.P.Y.L     E.E.E i i X   -.-.-.-.-.-.-.-.-.-.-.-.-.",
"-.-.-.-.-.-.-.-.-.-.-.-..   i i S A E.E.     .H.H.G.H. .    E.E.E i i o   -.-.-.-.-.-.-.-.-.-.-.-.-.",
"-.-.-.-.-.-.-.-.-.-.-.-.X   0 q e l ` ` r.p.y.t.t.8.t.i.p.p.` ` d q 0 .   -.-.-.-.-.-.-.-.-.-.-.-.-.",
"-.-.-.-.-.-.-.-.-.-.-.-.o X q q f l ` ` 8.0.0.0.0.0.9.9.0.u.` ` d q q X o -.-.-.-.-.-.-.-.-.-.-.-.-.",
"-.-.-.-.-.-.-.-.-.-.X   C E E ! ! +...o.` ` ` ` ` ` ` ` ` ` X.X.Q ! W E E       -.-.-.-.-.-.-.-.-.-.",
"-.-.-.-.-.-.-.-.-.-.. . A *.*.( _ =.$.| ` ` ` ` ` ` ` ` ` ` @.*._ _ ( ( _       -.-.-.-.-.-.-.-.-.-.",
"-.-.-.-.-.-.-.-.    L Y <.3.M.    8 S S  . .{  .{ { { { {  .S S 8     3.M.%.Y P     -.-.-.-.-.-.-.-.",
"-.-.-.-.-.-.-.-.    2.9.9.9.r.    8 S S &.$.$.*.#.#.#.#.#.*.S S 8     w.9.9.9.4.    -.-.-.-.-.-.-.-.",
"-.-.-.-.-.-.-.-.    ,.9.9.9.i.o   8 S S / _ _ _ *.:.( :.) _ S S 8     e.9.9.9.4.    -.-.-.-.-.-.-.-.",
"-.-.-.-.-.-.-.-.    ,.9.9.5.7.    8 S S G H G G G G G G H H S S 8     6.>.9.9.7.+   -.-.-.-.-.-.-.-.",
"-.-.-.-.-.-.-.-.    O.9.9.>.6.    8 S S S S S S A S S S S S S S 8     O.>.9.9.q.+   -.-.-.-.-.-.-.-.",
"-.-.-.-.-.-.-.-.    { O.[ ] }     - S S S S S S S S S S S S S S 8     ' [ [ O.X.+   -.-.-.-.-.-.-.-.",
"-.-.-.-.-.-.-.-.-.-.              % y y S S S S S S S S S S y y 8               -.-.-.-.-.-.-.-.-.-.",
"-.-.-.-.-.-.-.-.-.-.              $ y y S S S D S S S S S S y y 8               -.-.-.-.-.-.-.-.-.-.",
"-.-.-.-.-.-.-.-.-.-.-.-.-.-.-.    $ r r r r ;         0 r r r r ; o o -.-.-.-.-.-.-.-.-.-.-.-.-.-.-.",
"-.-.-.-.-.-.-.-.-.-.-.-.-.-.-.    * : : : : %         ; : : : : 8 o o -.-.-.-.-.-.-.-.-.-.-.-.-.-.-.",
"-.-.-.-.-.-.-.-.-.-.-.-.-.-.-.    $ : : : : *         * : : : : 8 o o -.-.-.-.-.-.-.-.-.-.-.-.-.-.-.",
"-.-.-.-.-.-.-.-.-.-.-.-.-.-.-.-.-.-.-.-.-.-.-.-.-.-.-.-.-.-.-.-.-.-.-.-.-.-.-.-.-.-.-.-.-.-.-.-.-.-."
};
