/* XPM */
static char *result[] = {
/* columns rows colors chars-per-pixel */
"50 50 30 1 ",
"  c black",
". c #040404",
"X c #070707",
"o c #050908",
"O c #0B0B0B",
"+ c gray5",
"@ c #161616",
"# c #1E1E1E",
"$ c #3F3014",
"% c #162522",
"& c gray13",
"* c gray21",
"= c #393939",
"- c #58311D",
"; c #5D4718",
": c #586738",
"> c #004F42",
", c #006859",
"< c #4D4C4B",
"1 c #585755",
"2 c #7D7B77",
"3 c #804426",
"4 c #DC8442",
"5 c #F2A451",
"6 c #F6A954",
"7 c #00B49D",
"8 c #A29E96",
"9 c #BDBBB5",
"0 c #D8B786",
"q c gray91",
/* pixels */
"::::::::::::::::::::::::::::::::::::::::::::::::::",
"::::::::::::::::::::::::::::::::::::::::::::::::::",
"::::::::::::::::::::::::::::::::::::::::::::::::::",
"::::::::::::::::::::::::::::::::::::::::::::::::::",
"::::::::::::::::::::::::::::::::::::::::::::::::::",
"::::::::::::::::::::::::::::::::::::::::::::::::::",
"::::::::::::::::::::::::::::::::::::::::::::::::::",
":::::::::::::::::::::::......:::::::::::::::::::::",
":::::::::::::::::::::::......:::::::::::::::::::::",
":::::::::::::::::::::..7777,,..:::::::::::::::::::",
":::::::::::::::::::::..7777,,..:::::::::::::::::::",
":::::::::::::::::::..>>777777,,..:::::::::::::::::",
":::::::::::::::::::..>>777777,,..:::::::::::::::::",
":::::::::::::::::::..>>>>>>%%%%%...:::::::::::::::",
":::::::::::::::::::..>>>>>>%%%%%...:::::::::::::::",
":::::::::::::::::..Oo%%>>>%%%......:::::::::::::::",
":::::::::::::::::.. X%%>>>%%%......:::::::::::::::",
":::::::::::::::..==222<<<<&&&&..::::::::::::::::::",
":::::::::::::::..==222<<<<<&&&..::::::::::::::::::",
":::::::::::::..==1111<<<<<<22211..::::::::::::::::",
":::::::::::::..==1111<<<22222211..::::::::::::::::",
":::::::::::::..119999888222211==..::::::::::::::::",
":::::::::::::..119999888222211==..::::::::::::::::",
":::::::::::::..==999999888######..::::::::::::::::",
":::::::::::::..==999999888######..::::::::::::::::",
":::::::::::::::..00..qq**#####..::::::::::::::::::",
":::::::::::::::..00..qq**#####..::::::::::::::::::",
":::::::::::::::..00..qq*****##..::::::::::::::::::",
":::::::::::::::..00..qq<<***...:::::::::::::::::::",
":::::::::::::::..336666<<***...:::::::::::::::::::",
":::::::::::::::::33333222<<..--..:::::::::::::::::",
":::::::::::::::::..333222<<..--..:::::::::::::::::",
":::::::::::::::..55552222<<..--..:::::::::::::::::",
":::::::::::::::..55552222<<..--..:::::::::::::::::",
":::::::::::::::..4455.<<<<<....:::::::::::::::::::",
":::::::::::::::..4455<<<<<<....:::::::::::::::::::",
":::::::::::::::.....@<<<<<<<<+::::::::::::::::::::",
":::::::::::::::..;;$$$....;;$$$..:::::::::::::::::",
":::::::::::::::..;;$$$....;;$$$..:::::::::::::::::",
":::::::::::::::..;;;;$..::.;;;$..:::::::::::::::::",
":::::::::::::::..;;;;$..::.;;;$..:::::::::::::::::",
"::::::::::::::::::::::::::::::::::::::::::::::::::",
"::::::::::::::::::::::::::::::::::::::::::::::::::",
"::::::::::::::::::::::::::::::::::::::::::::::::::",
"::::::::::::::::::::::::::::::::::::::::::::::::::",
"::::::::::::::::::::::::::::::::::::::::::::::::::",
"::::::::::::::::::::::::::::::::::::::::::::::::::",
"::::::::::::::::::::::::::::::::::::::::::::::::::",
"::::::::::::::::::::::::::::::::::::::::::::::::::",
"::::::::::::::::::::::::::::::::::::::::::::::::::"
};
