/* XPM */
static char *result[] = {
/* columns rows colors chars-per-pixel */
"50 50 41 1 ",
"  c black",
". c #040404",
"X c gray2",
"o c #0B0A0A",
"O c #0B0B0B",
"+ c #0C0B0B",
"@ c gray6",
"# c #100E0C",
"$ c #161616",
"% c gray10",
"& c #1E1E1E",
"* c gray12",
"= c #241C0D",
"- c #0D332C",
"; c #232323",
": c #2C2C2C",
"> c #353535",
", c gray21",
"< c #3A3939",
"1 c #3B3B3A",
"2 c #703C23",
"3 c #004B3F",
"4 c #544016",
"5 c #574317",
"6 c #586738",
"7 c #004D40",
"8 c #004F42",
"9 c #4C4B4A",
"0 c #4D4C4B",
"q c #4F4E4D",
"w c #545352",
"e c #706F6B",
"r c #7D7B77",
"t c #E59249",
"y c #F6A954",
"u c #00B49D",
"i c #A09C94",
"p c #A29E96",
"a c #BDBBB5",
"s c #F7D099",
"d c gray91",
/* pixels */
"66666666666666666666666666666666666666666666666666",
"66666666666666666666666666666666666666666666666666",
"66666666666666666666666666666666666666666666666666",
"66666666666666666666666666666666666666666666666666",
"66666666666666666666666666666666666666666666666666",
"6666666666666666666#########6666666666666666666666",
"6666666666666666666#########6666666666666666666666",
"66666666666666666##88uuuuuuu##66666666666666666666",
"66666666666666666##88uuuuuuu##66666666666666666666",
"666666666666666##88uuuuuuuuu88##666666666666666666",
"666666666666666##88uuuuuuuuu88##666666666666666666",
"6666666666666##------888888888##666666666666666666",
"6666666666666##------887888388##666666666666666666",
"6666666666666##--------88888--##666666666666666666",
"6666666666666##--------88888--##666666666666666666",
"6666666666666######>>>>--->>>>  ##6666666666666666",
"6666666666666######>>>>--->>>>+o##6666666666666666",
"666666666666666##;;111100rrrr111>>##66666666666666",
"666666666666666##;;111100rrrr111>>##66666666666666",
"6666666666666##;;;;11009000ppppp11>>##666666666666",
"6666666666666##;;;;1100q000ppppp11>>##666666666666",
"6666666666666##wwrrrrrrrr00000eeeeii##666666666666",
"6666666666666##wwrrrrrrrr00000eeeeii##666666666666",
"6666666666666##<<00rrrrrrpppppaaaaee##666666666666",
"6666666666666##<<00rrrrrrpppppaaaaee##666666666666",
"6666666666666##&&&&&&&&pppppaaaaaa<<##666666666666",
"6666666666666##&&&&&&&&pppppaaaaaa<<##666666666666",
"666666666666666##%&&&&&&&&,,dd##ss##66666666666666",
"666666666666666##$&&&&&&&&,,dd##ss##66666666666666",
"666666666666666##$&&*,,,,,00dd##ss##66666666666666",
"666666666666666##$&&*,,,,,00dd##ss##66666666666666",
"66666666666666666##,,,,,,,,,dd##ss##66666666666666",
"66666666666666666##,,,,,,,,,yyyy22##66666666666666",
"6666666666666666666##,,,,,,,yyyy22##66666666666666",
"6666666666666666666##000rrrr2222XX6666666666666666",
"6666666666666666666##000rrrr2222XX6666666666666666",
"6666666666666666666##000rrrr0000XX6666666666666666",
"6666666666666666666##000rrrr0000XX6666666666666666",
"6666666666666666666##O@yyyyyXX00XX6666666666666666",
"6666666666666666666XXX.yyyyyXX00XX6666666666666666",
"6666666666666666666XXX.yyyttXX::XX6666666666666666",
"6666666666666666666XXX.yyyttXX::XX6666666666666666",
"6666666666666666666XXXXXXXXX==XX666666666666666666",
"66666666666666666666XXXXXXXX==XX666666666666666666",
"66666666666666666666XX44444544XX666666666666666666",
"66666666666666666666XX44444444XX666666666666666666",
"66666666666666666666XX44444444XX666666666666666666",
"66666666666666666666666666666666666666666666666666",
"66666666666666666666666666666666666666666666666666",
"66666666666666666666666666666666666666666666666666"
};
