/* XPM */
static char *result[] = {
/* columns rows colors chars-per-pixel */
"50 50 41 1 ",
"  c black",
". c #040404",
"X c gray2",
"o c #0B0A0A",
"O c #0B0B0B",
"+ c #0C0B0B",
"@ c gray6",
"# c #100E0C",
"$ c #161616",
"% c gray10",
"& c #1E1E1E",
"* c gray12",
"= c #241C0D",
"- c #0D332C",
"; c #232323",
": c #2C2C2C",
"> c #353535",
", c gray21",
"< c #3A3939",
"1 c #3B3B3A",
"2 c #703C23",
"3 c #004B3F",
"4 c #544016",
"5 c #574317",
"6 c #586738",
"7 c #004D40",
"8 c #004F42",
"9 c #4C4B4A",
"0 c #4D4C4B",
"q c #4F4E4D",
"w c #545352",
"e c #706F6B",
"r c #7D7B77",
"t c #E59249",
"y c #F6A954",
"u c #00B49D",
"i c #A09C94",
"p c #A29E96",
"a c #BDBBB5",
"s c #F7D099",
"d c gray91",
/* pixels */
"66666666666666666666666666666666666666666666666666",
"66666666666666666666666666666666666666666666666666",
"66666666666666666666666666666666666666666666666666",
"66666666666666666666666666666666666666666666666666",
"66666666666666666666666666666666666666666666666666",
"6666666666666666666666#########6666666666666666666",
"6666666666666666666666#########6666666666666666666",
"66666666666666666666##uuuuuuu88##66666666666666666",
"66666666666666666666##uuuuuuu88##66666666666666666",
"666666666666666666##88uuuuuuuuu88##666666666666666",
"666666666666666666##88uuuuuuuuu88##666666666666666",
"666666666666666666##888888888------##6666666666666",
"666666666666666666##883888788------##6666666666666",
"666666666666666666##--88888--------##6666666666666",
"666666666666666666##--88888--------##6666666666666",
"6666666666666666##  >>>>--->>>>######6666666666666",
"6666666666666666##o+>>>>--->>>>######6666666666666",
"66666666666666##>>111rrrr001111;;##666666666666666",
"66666666666666##>>111rrrr001111;;##666666666666666",
"666666666666##>>11ppppp00090011;;;;##6666666666666",
"666666666666##>>11ppppp000q0011;;;;##6666666666666",
"666666666666##iieeee00000rrrrrrrrww##6666666666666",
"666666666666##iieeee00000rrrrrrrrww##6666666666666",
"666666666666##eeaaaappppprrrrrr00<<##6666666666666",
"666666666666##eeaaaappppprrrrrr00<<##6666666666666",
"666666666666##<<aaaaaappppp&&&&&&&&##6666666666666",
"666666666666##<<aaaaaappppp&&&&&&&&##6666666666666",
"66666666666666##ss##dd,,&&&&&&&&%##666666666666666",
"66666666666666##ss##dd,,&&&&&&&&$##666666666666666",
"66666666666666##ss##dd00,,,,,*&&$##666666666666666",
"66666666666666##ss##dd00,,,,,*&&$##666666666666666",
"66666666666666##ss##dd,,,,,,,,,##66666666666666666",
"66666666666666##22yyyy,,,,,,,,,##66666666666666666",
"66666666666666##22yyyy,,,,,,,##6666666666666666666",
"6666666666666666XX2222rrrr000##6666666666666666666",
"6666666666666666XX2222rrrr000##6666666666666666666",
"6666666666666666XX0000rrrr000##6666666666666666666",
"6666666666666666XX0000rrrr000##6666666666666666666",
"6666666666666666XX00XXyyyyy@O##6666666666666666666",
"6666666666666666XX00XXyyyyy.XXX6666666666666666666",
"6666666666666666XX::XXttyyy.XXX6666666666666666666",
"6666666666666666XX::XXttyyy.XXX6666666666666666666",
"666666666666666666XX==XXXXXXXXX6666666666666666666",
"666666666666666666XX==XXXXXXXX66666666666666666666",
"666666666666666666XX44544444XX66666666666666666666",
"666666666666666666XX44444444XX66666666666666666666",
"666666666666666666XX44444444XX66666666666666666666",
"66666666666666666666666666666666666666666666666666",
"66666666666666666666666666666666666666666666666666",
"66666666666666666666666666666666666666666666666666"
};
